<svg xmlns="http://www.w3.org/2000/svg" xmlns:xlink="http://www.w3.org/1999/xlink" width="14" height="14" viewBox="0 0 14 14"><defs><path id="y0sea" d="M614.13 2254.18a6.98 6.98 0 0 1-2.02 4.89 6.98 6.98 0 0 1-6.28 1.88 6.9 6.9 0 1 1 2.78-13.54 6.91 6.91 0 0 1 5.52 6.77zm-2.35-3.75a7.56 7.56 0 0 1-3.3 2.34c.15.28.28.56.4.85l.13.3c2.03-.25 4.02.18 4.11.2a5.89 5.89 0 0 0-1.34-3.7zm-4.56-2.16c-.48 0-.94.06-1.4.17.1.12 1.2 1.59 2.21 3.45a6.43 6.43 0 0 0 3.09-2.14 5.88 5.88 0 0 0-3.9-1.48zm-1.43.18h0zm-4.35 4.51c.16 0 2.62.03 5.45-.72-1.02-1.82-2.11-3.3-2.19-3.4a5.92 5.92 0 0 0-3.26 4.12zm1.39 5.16s1.61-2.87 4.8-3.9l.23-.07a17.8 17.8 0 0 0-.48-1c-3.04.91-5.95.84-6.06.84v.19c0 1.51.57 2.9 1.5 3.94zm6.7 1.5c-.1-.52-.44-2.33-1.27-4.49l-.04.01c-3.5 1.22-4.63 3.7-4.63 3.7l-.13-.11a5.87 5.87 0 0 0 6.06.88zm3.52-4.5a8.58 8.58 0 0 0-3.68-.26 25.44 25.44 0 0 1 1.15 4.21 5.9 5.9 0 0 0 2.53-3.95z"/></defs><g><g transform="translate(-600 -2247)"><use fill="#292c34" xlink:href="#y0sea"/></g></g></svg>