<svg xmlns="http://www.w3.org/2000/svg" xmlns:xlink="http://www.w3.org/1999/xlink" width="35" height="32" viewBox="0 0 35 32"><defs><path id="icvga" d="M685.6 611.61l-.01 12.98a2.27 2.27 0 0 1-2.27 2.27h-16.5a.77.77 0 0 0-.76.76v2.83h-1.51v-2.83a2.27 2.27 0 0 1 2.26-2.27h16.51c.41 0 .76-.35.76-.76v-12.98a.77.77 0 0 0-.76-.75h-7.77a10.9 10.9 0 0 1-1.61 5.27c-.96 1.48-2.36 2.52-4 2.64v.03h-.29-7.75a2.27 2.27 0 0 1-2.11 1.44h-2.08a2.27 2.27 0 0 1-2.27-2.26v-3.03h-3.28a.76.76 0 0 1-.75-.75c0-.42.34-.76.75-.76h3.28v-6.3h-3.28a.76.76 0 0 1-.75-.76c0-.41.34-.75.75-.75h3.28v-3.82a2.27 2.27 0 0 1 2.27-2.26h2.08c1.11 0 2.03.8 2.22 1.86H669.95v.02c1.63.12 3.03 1.16 3.99 2.64a10.93 10.93 0 0 1 1.6 5.27h7.78a2.27 2.27 0 0 1 2.27 2.27zm-25.06-9.8a.77.77 0 0 0-.75-.75h-2.08a.77.77 0 0 0-.76.75v16.17c0 .4.35.75.76.75h2.08c.41 0 .75-.34.75-.75zm7.9 15.47v-14.36h-6.35v14.36zm5.62-7.18c0-2.06-.55-3.91-1.4-5.2-.76-1.18-1.72-1.85-2.71-1.96v14.32c.99-.11 1.95-.78 2.72-1.96a9.68 9.68 0 0 0 1.39-5.2z"/></defs><g><g transform="translate(-651 -599)"><use fill="#28ea89" xlink:href="#icvga"/></g></g></svg>