<svg xmlns="http://www.w3.org/2000/svg" xmlns:xlink="http://www.w3.org/1999/xlink" width="15" height="13" viewBox="0 0 15 13"><defs><path id="1wtxa" d="M657.47 2252.61v.6c0 .16-.13.3-.3.3h-2.1v2.1c0 .16-.12.28-.28.28h-.6a.3.3 0 0 1-.3-.29v-2.1h-2.1a.3.3 0 0 1-.29-.29v-.6c0-.16.14-.29.3-.29h2.1v-2.1a.3.3 0 0 1 .29-.29h.6c.16 0 .29.13.29.3v2.1h2.1c.16 0 .29.12.29.28zm-5.94 4.2c0 1.24-.95 2.32-2.41 2.74a6.86 6.86 0 0 1-3.2 0c-1.04-.25-1.8-.75-2.16-1.38a1.75 1.75 0 0 1-.23-.87c0-.32.08-.63.22-.94.57-1.2 2.06-2.02 3.7-2.02h.05a1.46 1.46 0 0 1-.15-1.12 2.97 2.97 0 0 1-3.02-2.98c0-1.18.94-2.32 2.3-2.79.4-.14.8-.2 1.21-.2h3.7c.12 0 .23.07.27.2.04.11 0 .24-.1.32l-.83.6a.3.3 0 0 1-.17.05h-.3c.38.46.6 1.11.6 1.85 0 .8-.4 1.57-1.15 2.16-.57.44-.6.57-.6.82.01.14.41.6.86.92 1.03.72 1.41 1.44 1.41 2.63zm-3.93 1.78c1.6 0 2.4-.55 2.4-1.64 0-.1-.01-.2-.04-.3-.1-.43-.5-.7-1.07-1.09l-.25-.17a2.82 2.82 0 0 0-.8-.12h-.03c-1.26 0-2.36.76-2.36 1.63 0 .95.94 1.69 2.15 1.69zm-1.36-8.4c.14 1.1.94 2.05 1.74 2.07h.02c.3 0 .55-.12.75-.34.3-.35.44-.93.36-1.54-.14-1.1-.92-2.01-1.74-2.03h-.03c-.3 0-.55.11-.75.34-.3.35-.43.9-.35 1.5z"/></defs><g><g transform="translate(-643 -2247)"><use fill="#2a2d3c" xlink:href="#1wtxa"/></g></g></svg>