<svg xmlns="http://www.w3.org/2000/svg" xmlns:xlink="http://www.w3.org/1999/xlink" width="35" height="34" viewBox="0 0 35 34"><defs><path id="l4y3a" d="M113.94 627.7h17.95v1.52h-17.95zm25.38-13.83c0 .3-.14.65-.4.86-.25.2-.55.27-.83.27h-14.83v11.6h-1.51V615h-5.57v4.7a3.05 3.05 0 1 1-3.86 2.93c0-1.45 1-2.64 2.35-2.97V615h-7.76c-.27 0-.58-.07-.83-.28-.25-.2-.4-.54-.4-.85 0-.24.07-.46.17-.64l8.29-15.4a2.1 2.1 0 0 1 1.77-1.05h13.19c.75.04 1.37.4 1.77 1.06l8.28 15.4c.1.18.17.39.17.63zm-23.94 7.21a1.54 1.54 0 1 0 0 3.1 1.54 1.54 0 0 0 0-3.1zm22.2-7.59l-8.05-14.94c0-.07-.37-.3-.43-.26h-13.2c-.05-.03-.43.2-.43.26l-8.04 14.94z"/></defs><g><g transform="translate(-105 -596)"><use fill="#28ea89" xlink:href="#l4y3a"/></g></g></svg>