<svg xmlns="http://www.w3.org/2000/svg" xmlns:xlink="http://www.w3.org/1999/xlink" width="31" height="35" viewBox="0 0 31 35"><defs><path id="rbl1a" d="M415.76 608.8v15.28c0 1.22-.99 2.2-2.2 2.2h-26.11c-1.22 0-2.21-.98-2.21-2.2V608.8c0-1.22.99-2.2 2.2-2.2h10.5l-4.67-4.69a.76.76 0 0 1 1.07-1.07l5.75 5.75h1.2l11.33-11.32a.76.76 0 0 1 1.07 1.07l-10.26 10.25h10.12c1.22 0 2.2 1 2.21 2.21zm-1.51 0a.7.7 0 0 0-.7-.7h-26.1a.7.7 0 0 0-.7.7v15.28c0 .37.32.7.7.7h26.1a.7.7 0 0 0 .7-.7zm-20.18 19.64h13.42v1.51h-13.42z"/></defs><g><g transform="translate(-385 -595)"><use fill="#28ea89" xlink:href="#rbl1a"/></g></g></svg>