<svg xmlns="http://www.w3.org/2000/svg" xmlns:xlink="http://www.w3.org/1999/xlink" width="14" height="12" viewBox="0 0 14 12"><defs><path id="hwbsa" d="M572.47 2250.3c-.5.23-1.05.38-1.62.45.58-.35 1.03-.9 1.24-1.56-.55.32-1.15.55-1.8.68a2.82 2.82 0 0 0-4.88 1.94c0 .22.02.43.07.64a8.02 8.02 0 0 1-5.82-2.95 2.83 2.83 0 0 0 .87 3.77c-.46-.01-.9-.14-1.28-.35v.03c0 1.37.97 2.51 2.27 2.77a2.85 2.85 0 0 1-1.28.05 2.83 2.83 0 0 0 2.64 1.97 5.67 5.67 0 0 1-4.18 1.17 8.01 8.01 0 0 0 4.33 1.27c5.2 0 8.04-4.31 8.04-8.05l-.01-.36c.55-.4 1.03-.9 1.41-1.47z"/></defs><g><g transform="translate(-559 -2249)"><use fill="#292c34" xlink:href="#hwbsa"/></g></g></svg>